<mxfile host="drawio-plugin" modified="2024-04-05T15:21:00.399Z" agent="5.0 (Windows NT 10.0; Win64; x64) AppleWebKit/537.36 (KHTML, like Gecko) Chrome/111.0.0.0 Safari/537.36" etag="fF4Kk4pN4pon1rfcJ7VG" version="20.5.3" type="embed"><diagram id="QIJN_WebMaTiaiKJx5IP" name="Page-1"><mxGraphModel dx="1886" dy="502" grid="1" gridSize="10" guides="1" tooltips="1" connect="1" arrows="1" fold="1" page="1" pageScale="1" pageWidth="850" pageHeight="1100" math="0" shadow="0"><root><mxCell id="0"/><mxCell id="1" parent="0"/><mxCell id="2" value="auth" style="rounded=0;whiteSpace=wrap;html=1;" parent="1" vertex="1"><mxGeometry x="340" y="160" width="120" height="60" as="geometry"/></mxCell><mxCell id="3" value="order" style="rounded=0;whiteSpace=wrap;html=1;" parent="1" vertex="1"><mxGeometry x="340" y="350" width="120" height="60" as="geometry"/></mxCell><mxCell id="4" value="product" style="rounded=0;whiteSpace=wrap;html=1;" parent="1" vertex="1"><mxGeometry x="340" y="520" width="120" height="60" as="geometry"/></mxCell><mxCell id="9" value="* buyurmalarni olish&lt;br&gt;* buyurtmalarni statusni o'zgartirish&lt;br&gt;* buyurt yurtmalar list" style="text;html=1;align=center;verticalAlign=middle;resizable=0;points=[];autosize=1;strokeColor=none;fillColor=none;" parent="1" vertex="1"><mxGeometry x="810" y="360" width="210" height="60" as="geometry"/></mxCell><mxCell id="10" value="* productlarni saqlash&lt;br&gt;* 1 mnl ta producni bemalol seach qilish&amp;nbsp;" style="text;html=1;align=center;verticalAlign=middle;resizable=0;points=[];autosize=1;strokeColor=none;fillColor=none;" parent="1" vertex="1"><mxGeometry x="495" y="530" width="240" height="40" as="geometry"/></mxCell><mxCell id="11" value="kafka" style="rounded=0;whiteSpace=wrap;html=1;" vertex="1" parent="1"><mxGeometry x="80" y="350" width="120" height="60" as="geometry"/></mxCell><mxCell id="13" value="Actor" style="shape=umlActor;verticalLabelPosition=bottom;verticalAlign=top;html=1;outlineConnect=0;" vertex="1" parent="1"><mxGeometry x="-350" y="350.00000000000006" width="30" height="60" as="geometry"/></mxCell><mxCell id="14" value="" style="shape=flexArrow;endArrow=classic;html=1;rounded=0;" edge="1" parent="1"><mxGeometry width="50" height="50" relative="1" as="geometry"><mxPoint x="-20" y="382.5" as="sourcePoint"/><mxPoint x="70" y="383" as="targetPoint"/></mxGeometry></mxCell><mxCell id="16" value="" style="shape=flexArrow;endArrow=classic;html=1;rounded=0;" edge="1" parent="1"><mxGeometry width="50" height="50" relative="1" as="geometry"><mxPoint x="230" y="379.75" as="sourcePoint"/><mxPoint x="320" y="380.25" as="targetPoint"/></mxGeometry></mxCell><mxCell id="25" value="producer" style="rounded=0;whiteSpace=wrap;html=1;" vertex="1" parent="1"><mxGeometry x="-210" y="360" width="120" height="60" as="geometry"/></mxCell><mxCell id="26" value="" style="shape=flexArrow;endArrow=classic;html=1;rounded=0;" edge="1" parent="1"><mxGeometry width="50" height="50" relative="1" as="geometry"><mxPoint x="-310" y="389.72" as="sourcePoint"/><mxPoint x="-220" y="390.22" as="targetPoint"/></mxGeometry></mxCell><mxCell id="27" value="" style="strokeWidth=2;html=1;shape=mxgraph.flowchart.database;whiteSpace=wrap;" vertex="1" parent="1"><mxGeometry x="570" y="350" width="60" height="60" as="geometry"/></mxCell><mxCell id="28" value="" style="strokeWidth=2;html=1;shape=mxgraph.flowchart.database;whiteSpace=wrap;" vertex="1" parent="1"><mxGeometry x="585" y="150" width="60" height="60" as="geometry"/></mxCell><mxCell id="29" value="" style="strokeWidth=2;html=1;shape=mxgraph.flowchart.database;whiteSpace=wrap;" vertex="1" parent="1"><mxGeometry x="750" y="520" width="60" height="60" as="geometry"/></mxCell><mxCell id="30" value="" style="sketch=0;aspect=fixed;html=1;points=[];align=center;image;fontSize=12;image=img/lib/mscae/Cache_Redis_Product.svg;" vertex="1" parent="1"><mxGeometry x="450" y="478" width="50" height="42" as="geometry"/></mxCell></root></mxGraphModel></diagram></mxfile>